<svg width="3008" height="506" viewBox="0 0 3008 506" fill="none" xmlns="http://www.w3.org/2000/svg">
<path d="M415.094 327.204L160.989 28.1327C157.709 24.3973 156.186 20.4283 156.186 16.1092C156.186 11.3231 157.943 7.3542 161.458 4.43587C164.855 1.51753 169.541 0 175.516 0H412.634C422.944 0 431.262 3.73547 437.705 11.2064L562.707 154.205C565.988 158.524 567.745 164.127 567.979 171.131C568.214 178.135 566.456 183.738 562.707 188.057L440.868 324.752C437.705 328.604 433.37 330.822 427.981 331.639C422.592 332.457 418.375 330.939 415.094 327.204Z" fill="#111827"/>
<path d="M270.762 489.58L5.29257 183.271C1.54367 178.952 -0.213632 173.349 0.020674 166.462C0.372134 159.458 2.36375 153.855 6.11265 149.535L91.6345 49.8451C95.9691 45.0591 100.538 42.6077 105.341 42.6077C111.199 42.6077 116.119 45.0591 119.868 49.8451L386.978 363.391C390.141 367.126 391.781 371.095 391.781 375.064C391.781 379.15 390.258 383.002 386.978 386.738L296.652 489.58C293.372 493.899 289.272 496 284.117 496C278.962 496 274.511 493.899 270.762 489.58Z" fill="#111827"/>
<g clip-path="url(#clip0_5636_72435)">
<path d="M2803.55 416.408C2783.67 416.408 2766.13 411.576 2750.81 401.793C2735.5 392.011 2723.45 378.692 2714.57 361.602C2705.68 344.512 2701.24 325.183 2701.24 303.614C2701.24 281.927 2705.68 262.716 2714.57 245.979C2723.45 229.243 2735.5 216.278 2750.81 206.967C2766.13 197.773 2783.67 193.177 2803.55 193.177C2833.02 193.177 2857.57 203.431 2877.22 224.057C2896.86 244.683 2906.57 271.084 2906.57 303.614C2906.57 324.711 2902.12 343.923 2893.24 361.249C2884.35 378.574 2872.07 392.129 2856.17 401.793C2840.5 411.458 2822.84 416.408 2803.55 416.408ZM2381.66 504.805C2416.51 504.805 2448.31 496.908 2477.08 481.233C2505.84 465.557 2528.41 444.224 2545.13 417.115C2548.41 412.283 2547 408.158 2541.16 404.976L2475.09 370.088C2469.71 367.378 2465.39 368.792 2462.23 374.096C2455.8 386.589 2445.16 396.607 2430.42 404.151C2415.69 411.694 2399.91 415.465 2383.3 415.465C2353.83 415.465 2329.51 404.976 2310.45 383.76C2291.39 362.663 2281.92 335.555 2281.92 302.553C2281.92 268.962 2291.63 242.09 2310.92 221.817C2330.21 201.545 2354.42 191.409 2383.42 191.409C2403.3 191.409 2420.84 196.123 2436.15 205.67C2451.47 215.099 2462.7 227.593 2469.95 243.033C2477.2 258.473 2479.18 275.091 2476.03 293.006L2480 269.434H2268.24L2279.47 339.208H2560.45C2566.3 339.208 2569.81 336.262 2570.86 330.251C2571.44 320.468 2571.91 310.803 2572.49 301.021C2572.49 264.837 2564.54 231.364 2548.76 200.838C2532.97 170.311 2510.64 146.15 2481.87 128.588C2453.11 111.026 2419.78 102.187 2381.66 102.187C2344.13 102.187 2309.99 111.144 2279.35 128.942C2248.71 146.857 2224.86 171.136 2207.67 202.016C2190.48 232.896 2181.95 266.723 2181.95 303.496C2181.95 341.919 2190.36 376.571 2207.32 407.333C2224.27 438.213 2247.9 462.139 2278.18 479.111C2308.47 496.319 2342.96 504.805 2381.66 504.805ZM1914.64 505.63C1934.99 505.63 1953.93 502.094 1971.35 495.023C1988.78 487.951 2002.92 479.347 2013.68 469.093C2024.44 458.839 2031.11 449.292 2033.79 440.688V487.008C2033.79 489.719 2034.73 492.076 2036.6 493.962C2038.47 495.848 2040.81 496.791 2043.5 496.791H2125.59C2128.27 496.791 2130.5 495.848 2132.48 493.962C2134.36 492.076 2135.29 489.719 2135.29 487.008V9.78259C2135.29 7.07175 2134.36 4.83236 2132.48 2.8287C2130.61 0.9429 2128.27 0 2125.59 0H2043.5C2040.81 0 2038.47 0.9429 2036.6 2.8287C2034.73 4.7145 2033.79 7.07175 2033.79 9.78259V161.472C2031.11 155.579 2024.21 147.8 2013.21 138.371C2002.22 128.942 1988.31 120.573 1971.35 113.266C1954.4 105.958 1935.81 102.305 1915.34 102.305C1880.5 102.305 1848.93 111.144 1820.75 128.706C1792.57 146.267 1770.23 170.429 1753.86 200.956C1737.49 231.482 1729.31 265.78 1729.31 303.614C1729.31 341.448 1737.49 375.864 1753.86 406.744C1770.23 437.624 1792.68 461.785 1821.1 479.347C1849.63 496.791 1880.85 505.63 1914.64 505.63ZM1930.78 416.408C1911.48 416.408 1893.95 411.576 1878.39 401.793C1862.84 392.011 1850.56 378.692 1841.79 361.602C1832.91 344.512 1828.46 325.183 1828.46 303.614C1828.46 281.927 1832.91 262.716 1841.79 245.979C1850.68 229.243 1862.84 216.278 1878.39 206.967C1893.95 197.773 1911.37 193.177 1930.78 193.177C1960.25 193.177 1984.8 203.431 2004.44 224.057C2024.09 244.683 2033.79 271.084 2033.79 303.614C2033.79 324.711 2029.35 343.923 2020.46 361.249C2011.58 378.574 1999.3 392.129 1983.4 401.793C1967.61 411.458 1950.07 416.408 1930.78 416.408ZM1592.5 496.673H1674.58C1677.27 496.673 1679.49 495.73 1681.48 493.844C1683.35 491.958 1684.29 489.601 1684.29 486.89V9.78259C1684.29 7.07175 1683.35 4.83236 1681.48 2.8287C1679.61 0.9429 1677.27 0 1674.58 0H1592.5C1589.81 0 1587.59 0.9429 1585.6 2.8287C1583.73 4.7145 1582.79 7.07175 1582.79 9.78259V487.008C1582.79 489.719 1583.73 492.076 1585.6 493.962C1587.59 495.73 1589.81 496.673 1592.5 496.673ZM1333.26 414.758C1303.21 414.758 1278.07 404.622 1257.96 384.35C1237.85 364.077 1227.79 337.44 1227.79 304.439C1227.79 271.437 1237.85 244.683 1257.96 224.057C1278.07 203.549 1303.21 193.177 1333.26 193.177C1363.31 193.177 1388.45 203.431 1408.57 224.057C1428.68 244.683 1438.73 271.437 1438.73 304.439C1438.73 337.44 1428.79 364.077 1408.92 384.35C1389.15 404.622 1363.9 414.758 1333.26 414.758ZM1333.26 505.63C1372.43 505.63 1407.63 496.673 1438.73 478.875C1469.84 460.96 1494.16 436.799 1511.58 406.272C1529 375.746 1537.77 341.801 1537.77 304.439C1537.77 267.076 1529 233.014 1511.58 202.134C1494.16 171.254 1469.84 146.975 1438.73 129.059C1407.63 111.262 1372.43 102.305 1333.26 102.305C1294.09 102.305 1258.89 111.262 1227.79 129.059C1196.69 146.975 1172.37 171.254 1154.94 202.134C1137.52 233.014 1128.75 267.076 1128.75 304.439C1128.75 341.801 1137.52 375.746 1154.94 406.272C1172.37 436.799 1196.69 461.078 1227.79 478.875C1258.89 496.673 1294.09 505.63 1333.26 505.63ZM732.588 496.673H814.674C817.363 496.673 819.585 495.73 821.573 493.844C823.444 491.958 824.379 489.601 824.379 486.89V289.706C824.379 260.476 832.096 237.257 847.765 219.931C863.317 202.606 883.429 194.002 908.101 194.002C931.137 194.002 949.378 201.545 962.825 216.749C976.272 231.953 982.937 253.287 982.937 280.866V487.008C982.937 489.719 983.873 492.076 985.743 493.962C987.614 495.848 989.836 496.791 992.642 496.791H1074.73C1077.42 496.791 1079.64 495.848 1081.63 493.962C1083.5 492.076 1084.43 489.719 1084.43 487.008V264.601C1084.43 222.996 1076.48 190.112 1060.7 165.95C1044.91 141.906 1026.08 125.288 1004.34 116.095C982.586 106.901 961.305 102.305 940.374 102.305C914.65 102.305 890.913 107.373 869.164 117.273C847.414 127.292 832.564 140.139 824.496 155.814V9.78259C824.496 7.07175 823.56 4.83236 821.69 2.8287C819.819 0.9429 817.48 0 814.791 0H732.705C730.016 0 727.794 0.9429 725.806 2.8287C723.935 4.7145 723 7.07175 723 9.78259V487.008C723 489.719 723.935 492.076 725.806 493.962C727.677 495.73 729.899 496.673 732.588 496.673ZM2787.41 505.63C2807.76 505.63 2826.7 502.094 2844.12 495.023C2861.55 487.951 2875.7 479.347 2886.45 469.093C2897.21 458.839 2903.88 449.292 2906.57 440.688V487.008C2906.57 489.719 2907.5 492.076 2909.37 493.962C2911.24 495.848 2913.47 496.791 2916.27 496.791H2998.36C3001.05 496.791 3003.27 495.848 3005.26 493.962C3007.13 492.076 3008.06 489.719 3008.06 487.008V9.78259C3008.06 7.07175 3007.13 4.83236 3005.26 2.8287C3003.38 0.9429 3001.05 0 2998.36 0H2916.27C2913.58 0 2911.24 0.9429 2909.37 2.8287C2907.5 4.7145 2906.57 7.07175 2906.57 9.78259V161.472C2903.88 155.579 2896.98 147.8 2885.99 138.371C2874.99 128.942 2861.08 120.573 2844.12 113.266C2827.17 105.958 2808.58 102.305 2788.12 102.305C2753.27 102.305 2721.7 111.144 2693.52 128.706C2665.34 146.267 2643 170.429 2626.75 200.956C2610.38 231.482 2602.19 265.78 2602.19 303.614C2602.19 341.448 2610.38 375.864 2626.75 406.744C2643.12 437.624 2665.57 461.785 2693.99 479.347C2722.52 496.791 2753.62 505.63 2787.41 505.63Z" fill="#111827"/>
</g>
<defs>
<clipPath id="clip0_5636_72435">
<rect width="2285" height="506" fill="white" transform="translate(723)"/>
</clipPath>
</defs>
</svg>
