<svg width="102" height="24" viewBox="0 0 102 24" fill="none" xmlns="http://www.w3.org/2000/svg">
<g clip-path="url(#clip0_1705_38512)">
<path d="M101.249 21.9166C101.252 22.3034 101.139 22.6823 100.926 23.0051C100.712 23.3279 100.408 23.5802 100.05 23.73C99.6932 23.8798 99.2995 23.9203 98.9192 23.8464C98.5389 23.7724 98.1892 23.5874 97.9144 23.3148C97.6395 23.0422 97.452 22.6942 97.3754 22.315C97.2989 21.9358 97.3369 21.5425 97.4846 21.1848C97.6323 20.8272 97.883 20.5214 98.2049 20.3063C98.5268 20.0911 98.9055 19.9762 99.293 19.9762C99.5496 19.973 99.8044 20.021 100.042 20.1172C100.28 20.2134 100.497 20.356 100.679 20.5367C100.861 20.7173 101.005 20.9324 101.103 21.1693C101.201 21.4062 101.251 21.6603 101.249 21.9166ZM100.889 21.9166C100.888 21.6016 100.794 21.294 100.618 21.0325C100.442 20.771 100.192 20.5674 99.9008 20.4474C99.6091 20.3275 99.2883 20.2965 98.979 20.3585C98.6697 20.4205 98.3857 20.5725 98.163 20.7956C97.9402 21.0186 97.7886 21.3025 97.7274 21.6115C97.6661 21.9205 97.698 22.2407 97.8189 22.5316C97.9398 22.8225 98.1444 23.0711 98.4067 23.246C98.6691 23.421 98.9775 23.5143 99.293 23.5143C99.5041 23.5175 99.7137 23.4784 99.9093 23.3993C100.105 23.3202 100.283 23.2026 100.432 23.0536C100.582 22.9046 100.699 22.7272 100.779 22.5319C100.858 22.3366 100.898 22.1274 100.895 21.9166H100.889ZM99.4766 20.9408C99.848 20.9408 100.139 21.1523 100.139 21.5246C100.143 21.6536 100.103 21.7801 100.026 21.8839C99.9493 21.9877 99.8398 22.0628 99.7152 22.0971L100.195 22.891H99.7548L99.3127 22.1267H98.9724V22.891H98.591V20.9408H99.4766ZM98.9752 21.8461H99.3989C99.5994 21.8461 99.7506 21.7446 99.7506 21.5443C99.7506 21.3441 99.6093 21.2524 99.3989 21.2524H98.9752V21.8461Z" fill="#0075FF"/>
<path d="M94.5404 8.0166H92.0208C91.6331 8.0166 91.3188 8.33038 91.3188 8.71745V9.7102C91.3188 10.0973 91.6331 10.411 92.0208 10.411H94.5404C94.9281 10.411 95.2423 10.0973 95.2423 9.7102V8.71745C95.2423 8.33038 94.9281 8.0166 94.5404 8.0166Z" fill="#0075FF"/>
<path d="M46.2793 11.3854H43.7766C43.6844 11.3844 43.5929 11.4021 43.5077 11.4374C43.4225 11.4727 43.3454 11.5249 43.281 11.5908C43.2165 11.6567 43.1662 11.7349 43.1329 11.8208C43.0996 11.9067 43.0842 11.9985 43.0874 12.0905V19.6024C42.264 20.4006 41.2274 21.1395 40.1215 21.1395C38.8504 21.1395 37.9762 20.3625 37.9762 18.4602V12.0722C37.9771 11.9811 37.9598 11.8908 37.9251 11.8066C37.8904 11.7224 37.8392 11.646 37.7744 11.5819C37.7095 11.5179 37.6325 11.4675 37.5478 11.4337C37.4631 11.4 37.3725 11.3835 37.2813 11.3854H34.7673C34.6762 11.3833 34.5857 11.3996 34.501 11.4333C34.4164 11.4671 34.3394 11.5175 34.2748 11.5816C34.2102 11.6458 34.1592 11.7223 34.1249 11.8066C34.0906 11.8909 34.0737 11.9812 34.0753 12.0722V18.463C34.0753 22.2549 36.2009 23.8286 39.2021 23.8286C40.8969 23.8286 42.0493 23.1236 43.0931 22.2591C43.0964 22.3155 43.0964 22.372 43.0931 22.4284V23.1489C43.0898 23.241 43.1053 23.3327 43.1385 23.4186C43.1718 23.5045 43.2222 23.5828 43.2866 23.6487C43.351 23.7146 43.4282 23.7668 43.5134 23.8021C43.5986 23.8374 43.69 23.855 43.7823 23.854H46.2793C46.3711 23.8545 46.462 23.8364 46.5467 23.8008C46.6313 23.7652 46.7078 23.7129 46.7717 23.6471C46.8356 23.5812 46.8854 23.5031 46.9183 23.4175C46.9511 23.3319 46.9663 23.2406 46.9629 23.1489V12.0863C46.9657 11.995 46.9501 11.9041 46.917 11.819C46.8839 11.7339 46.8339 11.6563 46.7701 11.5909C46.7063 11.5255 46.63 11.4736 46.5457 11.4383C46.4613 11.403 46.3707 11.385 46.2793 11.3854Z" fill="#0075FF"/>
<path d="M52.8749 18.6902C53.0331 20.5234 53.848 21.3201 55.7094 21.3201C56.6628 21.3201 57.5017 21.0465 57.8873 20.5671C58.0375 20.3752 58.2308 20.2214 58.4517 20.118C58.6725 20.0146 58.9146 19.9646 59.1584 19.972H60.8122C60.9026 19.9705 60.9923 19.9872 61.0761 20.0211C61.1598 20.0551 61.2358 20.1056 61.2995 20.1696C61.3632 20.2336 61.4133 20.3098 61.4468 20.3936C61.4803 20.4774 61.4965 20.5671 61.4944 20.6573C61.4944 23.0363 59.0666 23.857 55.4369 23.857C51.3976 23.857 48.9712 21.6628 48.9712 17.5268C48.9712 13.3908 51.423 11.167 55.4369 11.167C59.4733 11.167 61.8997 13.3386 61.8997 17.3632V18.0048C61.9022 18.0949 61.8864 18.1846 61.8532 18.2684C61.8201 18.3522 61.7702 18.4284 61.7067 18.4925C61.6432 18.5565 61.5674 18.6071 61.4838 18.641C61.4002 18.675 61.3106 18.6917 61.2204 18.6902H52.8749ZM52.8523 16.3366H58.0017C57.9325 14.6233 57.1161 13.7053 55.4369 13.7053C53.8014 13.7053 52.9427 14.6233 52.8495 16.3366H52.8523Z" fill="#0075FF"/>
<path d="M69.4094 23.8567C65.767 23.8567 63.455 23.0346 63.455 20.6557C63.4519 20.5665 63.467 20.4777 63.4991 20.3944C63.5313 20.3112 63.58 20.2353 63.6422 20.1713C63.7045 20.1073 63.779 20.0566 63.8614 20.022C63.9438 19.9875 64.0323 19.9699 64.1216 19.9703H65.7458C65.9854 19.964 66.223 20.0147 66.4391 20.1181C66.6552 20.2216 66.8436 20.3749 66.9886 20.5654C67.3657 21.0449 68.1891 21.3184 69.141 21.3184C71.0082 21.3184 71.631 20.8855 71.631 20.2397C71.631 18.343 63.4395 19.3936 63.4395 14.7753C63.4395 12.1919 65.9463 11.1597 69.0803 11.1597C72.7213 11.1597 75.0319 11.9846 75.0319 14.365C75.0347 14.4541 75.0196 14.543 74.9874 14.6262C74.9551 14.7094 74.9065 14.7853 74.8443 14.8493C74.7821 14.9134 74.7076 14.9643 74.6254 14.9991C74.5431 15.0339 74.4546 15.0517 74.3653 15.0517H72.7411C72.5016 15.0587 72.2639 15.0084 72.0479 14.9048C71.8319 14.8013 71.6439 14.6476 71.4996 14.4566C71.1211 13.9743 70.3006 13.7008 69.3458 13.7008C67.8135 13.7008 67.192 14.1337 67.192 14.7753C67.192 16.6762 75.3836 15.5777 75.3836 20.2397C75.3821 22.8287 72.8738 23.8567 69.4094 23.8567Z" fill="#0075FF"/>
<path d="M24.0451 16.5002C25.3557 16.5002 25.9856 15.9559 26.4362 14.997L27.4968 12.6124C27.6332 12.3066 27.8537 12.0458 28.1328 11.8603C28.4118 11.6749 28.7379 11.5723 29.073 11.5647H31.1421C31.7282 11.5647 31.7988 12.0201 31.5248 12.611L30.104 15.7486C29.6351 16.7498 28.7326 17.5479 27.7638 17.7524C28.6917 18.0246 29.4331 18.6634 30.104 19.7562L31.9725 22.8078C32.3312 23.4029 32.1759 23.857 31.5884 23.857H29.5235C28.8018 23.857 28.1945 23.4029 27.8358 22.8078L26.4362 20.5065C25.8317 19.5081 25.0605 19.0286 24.0451 19.0286V23.1731C24.0475 23.2625 24.0319 23.3515 23.9992 23.4347C23.9664 23.518 23.9172 23.5938 23.8545 23.6576C23.7917 23.7215 23.7167 23.772 23.634 23.8063C23.5512 23.8405 23.4624 23.8578 23.3728 23.857H20.8052C20.7154 23.858 20.6262 23.8409 20.5432 23.8067C20.4601 23.7726 20.3848 23.7221 20.3216 23.6583C20.2585 23.5945 20.2089 23.5186 20.1757 23.4353C20.1426 23.3519 20.1266 23.2627 20.1287 23.1731V8.78947C20.1262 8.6997 20.1419 8.61035 20.1749 8.5268C20.2079 8.44326 20.2575 8.36725 20.3207 8.30335C20.3839 8.23946 20.4595 8.18899 20.5427 8.155C20.626 8.121 20.7152 8.10418 20.8052 8.10555H23.3728C23.4624 8.10456 23.5514 8.12167 23.6342 8.15585C23.7171 8.19003 23.7921 8.24058 23.8549 8.30446C23.9177 8.36834 23.9669 8.44423 23.9996 8.52758C24.0323 8.61092 24.0477 8.70001 24.0451 8.78947V16.5002Z" fill="#0075FF"/>
<path d="M81.338 16.4664C82.6487 16.4664 83.2786 15.9178 83.7291 14.9547L84.7898 12.5574C84.9254 12.2508 85.1456 11.989 85.4247 11.8027C85.7038 11.6164 86.0303 11.5133 86.3659 11.5054H88.435C89.0211 11.5054 89.0918 11.9637 88.8192 12.5574L87.3984 15.7105C86.9281 16.716 86.0256 17.5183 85.0567 17.7228C85.9846 17.9978 86.7261 18.6394 87.3984 19.7379L89.2711 22.8008C89.6299 23.3987 89.4745 23.8556 88.887 23.8556H86.8165C86.0948 23.8556 85.4875 23.3987 85.1217 22.8008L83.7221 20.4881C83.1176 19.4855 82.3464 19.0032 81.331 19.0032V23.1674C81.3338 23.2571 81.3185 23.3465 81.286 23.4302C81.2534 23.5138 81.2043 23.5901 81.1415 23.6543C81.0787 23.7186 81.0036 23.7695 80.9207 23.8041C80.8377 23.8387 80.7486 23.8562 80.6587 23.8556H78.0982C78.008 23.8564 77.9186 23.839 77.8354 23.8046C77.7521 23.7701 77.6766 23.7192 77.6135 23.655C77.5503 23.5908 77.5008 23.5145 77.4678 23.4307C77.4349 23.3469 77.4192 23.2574 77.4216 23.1674V8.71615C77.4192 8.62632 77.4349 8.5369 77.4679 8.45328C77.5009 8.36966 77.5505 8.29357 77.6136 8.22956C77.6768 8.16555 77.7523 8.11495 77.8356 8.0808C77.9188 8.04664 78.0081 8.02964 78.0982 8.03082H80.6658C80.7555 8.02982 80.8446 8.04697 80.9275 8.08124C81.0105 8.11551 81.0856 8.16619 81.1484 8.23022C81.2112 8.29425 81.2604 8.37031 81.293 8.45383C81.3256 8.53734 81.3409 8.62657 81.338 8.71615V16.4664Z" fill="#0075FF"/>
<path d="M92.0221 23.8568C91.9287 23.8568 91.8362 23.8383 91.7499 23.8023C91.6637 23.7664 91.5855 23.7137 91.5198 23.6473C91.4541 23.5809 91.4023 23.5022 91.3673 23.4157C91.3323 23.3291 91.3148 23.2365 91.316 23.1432V12.1624C91.3148 12.0691 91.3323 11.9765 91.3673 11.8899C91.4023 11.8034 91.4541 11.7247 91.5198 11.6583C91.5855 11.592 91.6637 11.5393 91.7499 11.5033C91.8362 11.4673 91.9287 11.4488 92.0221 11.4488H94.5827C94.6766 11.4473 94.7698 11.4647 94.8568 11.5001C94.9437 11.5355 95.0226 11.5882 95.0886 11.6549C95.1546 11.7216 95.2063 11.8009 95.2408 11.8881C95.2752 11.9754 95.2916 12.0686 95.2889 12.1624V23.1432C95.2916 23.237 95.2752 23.3302 95.2408 23.4175C95.2063 23.5047 95.1546 23.584 95.0886 23.6507C95.0226 23.7174 94.9437 23.7701 94.8568 23.8055C94.7698 23.8409 94.6766 23.8583 94.5827 23.8568H92.0221Z" fill="#0075FF"/>
</g>
<path d="M15.4165 13.9155C15.4165 14.2529 14.7696 20.1009 14.4638 22.9602C14.3746 23.8036 13.5225 23.8585 13.2932 23.8585H3.4465C2.42164 23.8585 2.05643 23.41 1.95734 22.8744C1.85259 22.3121 1.30901 16.8142 1.03722 14.8995L0.942383 13.9478C0.942383 13.4741 1.27645 13.0664 1.74075 13.0664H14.5672C14.6797 13.0664 14.791 13.0886 14.8948 13.1317C14.9986 13.1748 15.0927 13.2379 15.1718 13.3174C15.2508 13.3969 15.3131 13.4912 15.3551 13.5949C15.3971 13.6985 15.418 13.8094 15.4165 13.9211V13.9155Z" fill="url(#paint0_linear_1705_38512)"/>
<path d="M15.424 8.10867H11.3436C11.3719 7.10368 11.8422 6.80063 12.8012 6.19031L15.061 4.74554C15.3654 4.56318 15.6193 4.30776 15.7997 4.00251C15.98 3.69726 16.081 3.35186 16.0934 2.99773V0.849615C16.0934 0.23929 15.6499 0.0757852 15.0709 0.449309L12.0738 2.37895C11.0018 3.07385 10.379 3.84767 10.0965 4.80192C9.90585 3.79834 9.12905 2.85819 8.14887 2.36485L5.1829 0.883443C4.601 0.601538 4.15752 0.672014 4.15328 1.27952L4.14622 3.42764C4.14853 3.76861 4.24526 4.10231 4.42572 4.39185C4.60618 4.6814 4.86334 4.91551 5.16878 5.06832L7.39749 6.17057C8.31694 6.6329 8.84658 6.80768 8.86635 8.10726H0.834222C0.747369 8.1067 0.66126 8.12327 0.580839 8.15601C0.500418 8.18876 0.427269 8.23703 0.365591 8.29806C0.303913 8.35909 0.25492 8.43167 0.221426 8.51165C0.187931 8.59163 0.170594 8.67742 0.17041 8.7641L0.17041 11.3858C0.170965 11.4723 0.188575 11.5577 0.222235 11.6374C0.255895 11.717 0.304946 11.7893 0.366587 11.85C0.428228 11.9108 0.501252 11.9588 0.581489 11.9914C0.661726 12.0239 0.747605 12.0404 0.834222 12.0398H15.424C15.5109 12.041 15.5973 12.0249 15.678 11.9926C15.7587 11.9603 15.8323 11.9123 15.8943 11.8515C15.9564 11.7908 16.0059 11.7183 16.0398 11.6384C16.0737 11.5585 16.0915 11.4726 16.092 11.3858V8.7641C16.0917 8.67718 16.074 8.59119 16.0402 8.5111C16.0064 8.43101 15.957 8.3584 15.8948 8.29746C15.8327 8.23652 15.7591 8.18847 15.6783 8.15606C15.5975 8.12366 15.5111 8.10755 15.424 8.10867Z" fill="url(#paint1_linear_1705_38512)"/>
<path style="mix-blend-mode:hard-light" opacity="0.4" d="M15.424 8.10867H11.3436C11.3719 7.10368 11.8422 6.80063 12.8012 6.19031L15.061 4.74554C15.3654 4.56318 15.6193 4.30776 15.7997 4.00251C15.98 3.69726 16.081 3.35186 16.0934 2.99773V0.849615C16.0934 0.23929 15.6499 0.0757852 15.0709 0.449309L12.0738 2.37895C11.0018 3.07385 10.379 3.84767 10.0965 4.80192C9.90585 3.79834 9.12905 2.85819 8.14887 2.36485L5.1829 0.883443C4.601 0.601538 4.15752 0.672014 4.15328 1.27952L4.14622 3.42764C4.14853 3.76861 4.24526 4.10231 4.42572 4.39185C4.60618 4.6814 4.86334 4.91551 5.16878 5.06832L7.39749 6.17057C8.31694 6.6329 8.84658 6.80768 8.86635 8.10726H0.834222C0.747369 8.1067 0.66126 8.12327 0.580839 8.15601C0.500418 8.18876 0.427269 8.23703 0.365591 8.29806C0.303913 8.35909 0.25492 8.43167 0.221426 8.51165C0.187931 8.59163 0.170594 8.67742 0.17041 8.7641L0.17041 11.3858C0.170965 11.4723 0.188575 11.5577 0.222235 11.6374C0.255895 11.717 0.304946 11.7893 0.366587 11.85C0.428228 11.9108 0.501252 11.9588 0.581489 11.9914C0.661726 12.0239 0.747605 12.0404 0.834222 12.0398H15.424C15.5109 12.041 15.5973 12.0249 15.678 11.9926C15.7587 11.9603 15.8323 11.9123 15.8943 11.8515C15.9564 11.7908 16.0059 11.7183 16.0398 11.6384C16.0737 11.5585 16.0915 11.4726 16.092 11.3858V8.7641C16.0917 8.67718 16.074 8.59119 16.0402 8.5111C16.0064 8.43101 15.957 8.3584 15.8948 8.29746C15.8327 8.23652 15.7591 8.18847 15.6783 8.15606C15.5975 8.12366 15.5111 8.10755 15.424 8.10867Z" fill="url(#paint2_linear_1705_38512)" fill-opacity="0.5"/>
<defs>
<linearGradient id="paint0_linear_1705_38512" x1="3.01777" y1="13.0825" x2="10.5945" y2="26.7152" gradientUnits="userSpaceOnUse">
<stop stop-color="#25A2FA"/>
<stop offset="0.483812" stop-color="#0075FF"/>
<stop offset="1" stop-color="#3F58EA"/>
</linearGradient>
<linearGradient id="paint1_linear_1705_38512" x1="14.9512" y1="11.9993" x2="1.72762" y2="-0.302263" gradientUnits="userSpaceOnUse">
<stop stop-color="#00BBE9"/>
<stop offset="0.1" stop-color="#01C3DC"/>
<stop offset="0.18" stop-color="#02CDCE"/>
<stop offset="0.24" stop-color="#09D1C0"/>
<stop offset="0.37" stop-color="#1BDD9A"/>
<stop offset="0.55" stop-color="#38EF5F"/>
<stop offset="0.59" stop-color="#3FF350"/>
<stop offset="0.67" stop-color="#4BF550"/>
<stop offset="0.82" stop-color="#69F950"/>
<stop offset="1" stop-color="#95FF4F"/>
<stop offset="1" stop-color="#95FF4F"/>
</linearGradient>
<linearGradient id="paint2_linear_1705_38512" x1="0.722646" y1="12.4246" x2="17.0075" y2="1.82747" gradientUnits="userSpaceOnUse">
<stop stop-color="#01BDE6" stop-opacity="0"/>
<stop offset="0.1" stop-color="#06BEE2" stop-opacity="0.02"/>
<stop offset="0.23" stop-color="#14C2D7" stop-opacity="0.08"/>
<stop offset="0.36" stop-color="#2AC8C4" stop-opacity="0.17"/>
<stop offset="0.51" stop-color="#4AD0AA" stop-opacity="0.31"/>
<stop offset="0.65" stop-color="#73DB88" stop-opacity="0.48"/>
<stop offset="0.81" stop-color="#A5E85F" stop-opacity="0.69"/>
<stop offset="1" stop-color="#EEFB24"/>
</linearGradient>
<clipPath id="clip0_1705_38512">
<rect width="101.054" height="23.7146" fill="white" transform="translate(0.194824 0.14209)"/>
</clipPath>
</defs>
</svg>
